<svg width="512" height="320" viewBox="0 0 512 320" fill="none" xmlns="http://www.w3.org/2000/svg">
  <title>Private Athlete Script</title>
  <defs>
    <linearGradient id="g3" x1="69" y1="220" x2="450" y2="86" gradientUnits="userSpaceOnUse">
      <stop stop-color="#78D8FF" stop-opacity=".15"/>
      <stop offset=".34" stop-color="#F8FCFF"/>
      <stop offset=".65" stop-color="#FFFFFF"/>
      <stop offset="1" stop-color="#AEEAFF"/>
    </linearGradient>
  </defs>
  <path d="M62 224C90 159 150 103 207 89C238 82 249 94 231 121C215 145 184 171 165 202C203 174 239 154 270 154C296 154 300 175 275 207C269 215 260 225 250 238" stroke="url(#g3)" stroke-width="12" stroke-linecap="round" stroke-linejoin="round"/>
  <path d="M94 201C142 134 191 96 225 100" stroke="#73D6FF" stroke-width="4.2" stroke-linecap="round" opacity=".95"/>
  <path d="M254 237L418 54" stroke="#FFFFFF" stroke-width="5" stroke-linecap="round"/>
  <path d="M311 151C357 124 408 104 454 98" stroke="#F3FAFF" stroke-width="4" stroke-linecap="round"/>
  <path d="M425 99L456 94" stroke="#54E0C4" stroke-width="3.5" stroke-linecap="round"/>
  <circle cx="457" cy="94" r="8" fill="#54E0C4"/>
</svg>
