<svg width="512" height="320" viewBox="0 0 512 320" fill="none" xmlns="http://www.w3.org/2000/svg">
  <title>Ice Blade Signature</title>
  <defs>
    <linearGradient id="g4" x1="58" y1="226" x2="437" y2="58" gradientUnits="userSpaceOnUse">
      <stop stop-color="#64D4FF" stop-opacity="0"/>
      <stop offset=".3" stop-color="#86E0FF"/>
      <stop offset=".48" stop-color="#FFFFFF"/>
      <stop offset=".76" stop-color="#F7FBFF"/>
      <stop offset="1" stop-color="#BEEFFF"/>
    </linearGradient>
  </defs>
  <path d="M52 229C85 157 145 101 204 86C239 78 254 89 238 114C219 143 187 165 165 202C209 171 252 151 282 158C302 163 292 188 254 234" stroke="url(#g4)" stroke-width="10.5" stroke-linecap="round" stroke-linejoin="round"/>
  <path d="M112 194C143 149 184 112 218 105C233 102 236 108 227 121" stroke="#FFFFFF" stroke-width="6.5" stroke-linecap="round"/>
  <path d="M255 236L436 44" stroke="#FFFFFF" stroke-width="4.25" stroke-linecap="round"/>
  <path d="M319 149C364 125 405 108 456 99" stroke="#DDF4FF" stroke-width="3.4" stroke-linecap="round"/>
  <circle cx="448" cy="101" r="8.5" fill="#54E0C4"/>
</svg>
