<svg width="512" height="320" viewBox="0 0 512 320" fill="none" xmlns="http://www.w3.org/2000/svg">
  <title>Velocity Signature</title>
  <defs>
    <linearGradient id="iceSweep1" x1="56" y1="214" x2="342" y2="88" gradientUnits="userSpaceOnUse">
      <stop stop-color="#78D8FF" stop-opacity="0"/>
      <stop offset="0.24" stop-color="#86DEFF"/>
      <stop offset="0.62" stop-color="#F7FBFF"/>
      <stop offset="1" stop-color="#B9E9FF"/>
    </linearGradient>
    <linearGradient id="silver1" x1="118" y1="202" x2="384" y2="94" gradientUnits="userSpaceOnUse">
      <stop stop-color="#8FDFFF"/>
      <stop offset="0.28" stop-color="#F8FCFF"/>
      <stop offset="0.72" stop-color="#EFF7FF"/>
      <stop offset="1" stop-color="#9ADFFF"/>
    </linearGradient>
  </defs>
  <path d="M50 228C86 146 154 91 212 83C247 78 247 103 207 143C185 166 164 188 152 211C198 177 248 145 280 151C301 155 299 177 273 214" stroke="url(#iceSweep1)" stroke-width="7" stroke-linecap="round"/>
  <path d="M106 194C137 143 184 104 222 101C242 100 236 121 207 150C191 166 177 183 167 200C207 171 251 151 275 158C295 164 282 193 250 229" stroke="url(#silver1)" stroke-width="13" stroke-linecap="round" stroke-linejoin="round"/>
  <path d="M256 226L428 54" stroke="#F8FCFF" stroke-width="5.5" stroke-linecap="round"/>
  <path d="M319 149C361 120 399 103 456 91" stroke="#EAF6FF" stroke-width="4" stroke-linecap="round" opacity=".95"/>
  <circle cx="438" cy="102" r="10" fill="#54E0C4"/>
</svg>
