<svg width="512" height="320" viewBox="0 0 512 320" fill="none" xmlns="http://www.w3.org/2000/svg">
  <title>MM Fitness App Performance Signature Primary</title>
  <defs>
    <linearGradient id="iceSweep" x1="50" y1="230" x2="456" y2="88" gradientUnits="userSpaceOnUse">
      <stop stop-color="#78D8FF" stop-opacity="0"/>
      <stop offset="0.2" stop-color="#7EDBFF"/>
      <stop offset="0.45" stop-color="#F8FCFF"/>
      <stop offset="0.76" stop-color="#F4FAFF"/>
      <stop offset="1" stop-color="#9BE5FF"/>
    </linearGradient>
    <linearGradient id="silverStroke" x1="96" y1="204" x2="432" y2="58" gradientUnits="userSpaceOnUse">
      <stop stop-color="#8FE1FF"/>
      <stop offset="0.25" stop-color="#FFFFFF"/>
      <stop offset="0.62" stop-color="#F4FAFF"/>
      <stop offset="1" stop-color="#BDEFFF"/>
    </linearGradient>
  </defs>
  <path d="M50 230C85 154 151 101 208 91C237 86 246 98 232 118C214 145 179 166 158 210C201 178 246 157 279 162C300 165 297 184 268 218" stroke="url(#iceSweep)" stroke-width="5.5" stroke-linecap="round"/>
  <path d="M94 206C127 151 178 112 220 110C242 109 239 126 211 151C190 169 171 188 160 213C203 181 246 160 276 166C299 171 287 198 254 232" stroke="url(#silverStroke)" stroke-width="9" stroke-linecap="round" stroke-linejoin="round"/>
  <path d="M257 231L426 55" stroke="#F8FCFF" stroke-width="4.2" stroke-linecap="round"/>
  <path d="M310 156C356 125 399 106 456 93" stroke="#EAF6FF" stroke-width="3.2" stroke-linecap="round" opacity=".95"/>
  <circle cx="438" cy="101" r="9.5" fill="#54E0C4"/>
</svg>
